<svg xmlns="http://www.w3.org/2000/svg" version="1.1" xmlns:xlink="http://www.w3.org/1999/xlink" xmlns:svgjs="http://svgjs.dev/svgjs" width="1440" height="560" preserveAspectRatio="none" viewBox="0 0 1440 560"><g mask="url(&quot;#SvgjsMask1003&quot;)" fill="none"><rect width="1440" height="560" x="0" y="0" fill="rgba(213, 216, 218, 1)"></rect><path d="M98.43 111.33L163.39 148.83L163.39 223.83L98.43 261.33L33.48 223.83L33.48 148.83zM33.48 448.83L98.43 486.33L98.43 561.33L33.48 598.83L-31.47 561.33L-31.47 486.33zM98.43 561.33L163.39 598.83L163.39 673.83L98.43 711.33L33.48 673.83L33.48 598.83zM228.34 111.33L293.3 148.83L293.3 223.83L228.34 261.33L163.39 223.83L163.39 148.83zM228.34 336.33L293.3 373.83L293.3 448.83L228.34 486.33L163.39 448.83L163.39 373.83zM163.39 448.83L228.34 486.33L228.34 561.33L163.39 598.83L98.43 561.33L98.43 486.33zM358.25 336.33L423.2 373.83L423.2 448.83L358.25 486.33L293.3 448.83L293.3 373.83zM293.3 448.83L358.25 486.33L358.25 561.33L293.3 598.83L228.34 561.33L228.34 486.33zM423.2 223.83L488.16 261.33L488.16 336.33L423.2 373.83L358.25 336.33L358.25 261.33zM488.16 561.33L553.11 598.83L553.11 673.83L488.16 711.33L423.2 673.83L423.2 598.83zM553.11 -1.17L618.06 36.33L618.06 111.33L553.11 148.83L488.16 111.33L488.16 36.33zM747.97 111.33L812.93 148.83L812.93 223.83L747.97 261.33L683.02 223.83L683.02 148.83zM877.88 111.33L942.83 148.83L942.83 223.83L877.88 261.33L812.92 223.83L812.92 148.83zM877.88 336.33L942.83 373.83L942.83 448.83L877.88 486.33L812.92 448.83L812.92 373.83zM942.83 -1.17L1007.79 36.33L1007.79 111.33L942.83 148.83L877.88 111.33L877.88 36.33zM942.83 448.83L1007.79 486.33L1007.79 561.33L942.83 598.83L877.88 561.33L877.88 486.33zM1007.79 561.33L1072.74 598.83L1072.74 673.83L1007.79 711.33L942.83 673.83L942.83 598.83zM1072.74 -1.17L1137.69 36.33L1137.69 111.33L1072.74 148.83L1007.79 111.33L1007.79 36.33zM1137.69 111.33L1202.65 148.83L1202.65 223.83L1137.69 261.33L1072.74 223.83L1072.74 148.83zM1072.74 223.83L1137.69 261.33L1137.69 336.33L1072.74 373.83L1007.79 336.33L1007.79 261.33zM1202.65 -1.17L1267.6 36.33L1267.6 111.33L1202.65 148.83L1137.69 111.33L1137.69 36.33zM1267.6 111.33L1332.55 148.83L1332.55 223.83L1267.6 261.33L1202.65 223.83L1202.65 148.83zM1202.65 223.83L1267.6 261.33L1267.6 336.33L1202.65 373.83L1137.69 336.33L1137.69 261.33zM1397.51 111.33L1462.46 148.83L1462.46 223.83L1397.51 261.33L1332.56 223.83L1332.56 148.83zM1332.56 223.83L1397.51 261.33L1397.51 336.33L1332.56 373.83L1267.6 336.33L1267.6 261.33zM1397.51 336.33L1462.46 373.83L1462.46 448.83L1397.51 486.33L1332.56 448.83L1332.56 373.83zM1527.42 111.33L1592.37 148.83L1592.37 223.83L1527.42 261.33L1462.46 223.83L1462.46 148.83zM1527.42 336.33L1592.37 373.83L1592.37 448.83L1527.42 486.33L1462.46 448.83L1462.46 373.83z" stroke="rgba(216, 220, 224, 1)" stroke-width="2"></path><path d="M90.93 111.33 a7.5 7.5 0 1 0 15 0 a7.5 7.5 0 1 0 -15 0zM155.89 148.83 a7.5 7.5 0 1 0 15 0 a7.5 7.5 0 1 0 -15 0zM155.89 223.83 a7.5 7.5 0 1 0 15 0 a7.5 7.5 0 1 0 -15 0zM90.93 261.33 a7.5 7.5 0 1 0 15 0 a7.5 7.5 0 1 0 -15 0zM25.98 223.83 a7.5 7.5 0 1 0 15 0 a7.5 7.5 0 1 0 -15 0zM25.98 148.83 a7.5 7.5 0 1 0 15 0 a7.5 7.5 0 1 0 -15 0zM25.98 448.83 a7.5 7.5 0 1 0 15 0 a7.5 7.5 0 1 0 -15 0zM90.93 486.33 a7.5 7.5 0 1 0 15 0 a7.5 7.5 0 1 0 -15 0zM90.93 561.33 a7.5 7.5 0 1 0 15 0 a7.5 7.5 0 1 0 -15 0zM25.98 598.83 a7.5 7.5 0 1 0 15 0 a7.5 7.5 0 1 0 -15 0zM-38.97 561.33 a7.5 7.5 0 1 0 15 0 a7.5 7.5 0 1 0 -15 0zM-38.97 486.33 a7.5 7.5 0 1 0 15 0 a7.5 7.5 0 1 0 -15 0zM155.89 598.83 a7.5 7.5 0 1 0 15 0 a7.5 7.5 0 1 0 -15 0zM155.89 673.83 a7.5 7.5 0 1 0 15 0 a7.5 7.5 0 1 0 -15 0zM90.93 711.33 a7.5 7.5 0 1 0 15 0 a7.5 7.5 0 1 0 -15 0zM25.98 673.83 a7.5 7.5 0 1 0 15 0 a7.5 7.5 0 1 0 -15 0zM220.84 111.33 a7.5 7.5 0 1 0 15 0 a7.5 7.5 0 1 0 -15 0zM285.8 148.83 a7.5 7.5 0 1 0 15 0 a7.5 7.5 0 1 0 -15 0zM285.8 223.83 a7.5 7.5 0 1 0 15 0 a7.5 7.5 0 1 0 -15 0zM220.84 261.33 a7.5 7.5 0 1 0 15 0 a7.5 7.5 0 1 0 -15 0zM220.84 336.33 a7.5 7.5 0 1 0 15 0 a7.5 7.5 0 1 0 -15 0zM285.8 373.83 a7.5 7.5 0 1 0 15 0 a7.5 7.5 0 1 0 -15 0zM285.8 448.83 a7.5 7.5 0 1 0 15 0 a7.5 7.5 0 1 0 -15 0zM220.84 486.33 a7.5 7.5 0 1 0 15 0 a7.5 7.5 0 1 0 -15 0zM155.89 448.83 a7.5 7.5 0 1 0 15 0 a7.5 7.5 0 1 0 -15 0zM155.89 373.83 a7.5 7.5 0 1 0 15 0 a7.5 7.5 0 1 0 -15 0zM220.84 561.33 a7.5 7.5 0 1 0 15 0 a7.5 7.5 0 1 0 -15 0zM350.75 336.33 a7.5 7.5 0 1 0 15 0 a7.5 7.5 0 1 0 -15 0zM415.7 373.83 a7.5 7.5 0 1 0 15 0 a7.5 7.5 0 1 0 -15 0zM415.7 448.83 a7.5 7.5 0 1 0 15 0 a7.5 7.5 0 1 0 -15 0zM350.75 486.33 a7.5 7.5 0 1 0 15 0 a7.5 7.5 0 1 0 -15 0zM350.75 561.33 a7.5 7.5 0 1 0 15 0 a7.5 7.5 0 1 0 -15 0zM285.8 598.83 a7.5 7.5 0 1 0 15 0 a7.5 7.5 0 1 0 -15 0zM415.7 223.83 a7.5 7.5 0 1 0 15 0 a7.5 7.5 0 1 0 -15 0zM480.66 261.33 a7.5 7.5 0 1 0 15 0 a7.5 7.5 0 1 0 -15 0zM480.66 336.33 a7.5 7.5 0 1 0 15 0 a7.5 7.5 0 1 0 -15 0zM350.75 261.33 a7.5 7.5 0 1 0 15 0 a7.5 7.5 0 1 0 -15 0zM480.66 561.33 a7.5 7.5 0 1 0 15 0 a7.5 7.5 0 1 0 -15 0zM545.61 598.83 a7.5 7.5 0 1 0 15 0 a7.5 7.5 0 1 0 -15 0zM545.61 673.83 a7.5 7.5 0 1 0 15 0 a7.5 7.5 0 1 0 -15 0zM480.66 711.33 a7.5 7.5 0 1 0 15 0 a7.5 7.5 0 1 0 -15 0zM415.7 673.83 a7.5 7.5 0 1 0 15 0 a7.5 7.5 0 1 0 -15 0zM415.7 598.83 a7.5 7.5 0 1 0 15 0 a7.5 7.5 0 1 0 -15 0zM545.61 -1.17 a7.5 7.5 0 1 0 15 0 a7.5 7.5 0 1 0 -15 0zM610.56 36.33 a7.5 7.5 0 1 0 15 0 a7.5 7.5 0 1 0 -15 0zM610.56 111.33 a7.5 7.5 0 1 0 15 0 a7.5 7.5 0 1 0 -15 0zM545.61 148.83 a7.5 7.5 0 1 0 15 0 a7.5 7.5 0 1 0 -15 0zM480.66 111.33 a7.5 7.5 0 1 0 15 0 a7.5 7.5 0 1 0 -15 0zM480.66 36.33 a7.5 7.5 0 1 0 15 0 a7.5 7.5 0 1 0 -15 0zM740.47 111.33 a7.5 7.5 0 1 0 15 0 a7.5 7.5 0 1 0 -15 0zM805.43 148.83 a7.5 7.5 0 1 0 15 0 a7.5 7.5 0 1 0 -15 0zM805.43 223.83 a7.5 7.5 0 1 0 15 0 a7.5 7.5 0 1 0 -15 0zM740.47 261.33 a7.5 7.5 0 1 0 15 0 a7.5 7.5 0 1 0 -15 0zM675.52 223.83 a7.5 7.5 0 1 0 15 0 a7.5 7.5 0 1 0 -15 0zM675.52 148.83 a7.5 7.5 0 1 0 15 0 a7.5 7.5 0 1 0 -15 0zM870.38 111.33 a7.5 7.5 0 1 0 15 0 a7.5 7.5 0 1 0 -15 0zM935.33 148.83 a7.5 7.5 0 1 0 15 0 a7.5 7.5 0 1 0 -15 0zM935.33 223.83 a7.5 7.5 0 1 0 15 0 a7.5 7.5 0 1 0 -15 0zM870.38 261.33 a7.5 7.5 0 1 0 15 0 a7.5 7.5 0 1 0 -15 0zM805.42 223.83 a7.5 7.5 0 1 0 15 0 a7.5 7.5 0 1 0 -15 0zM805.42 148.83 a7.5 7.5 0 1 0 15 0 a7.5 7.5 0 1 0 -15 0zM870.38 336.33 a7.5 7.5 0 1 0 15 0 a7.5 7.5 0 1 0 -15 0zM935.33 373.83 a7.5 7.5 0 1 0 15 0 a7.5 7.5 0 1 0 -15 0zM935.33 448.83 a7.5 7.5 0 1 0 15 0 a7.5 7.5 0 1 0 -15 0zM870.38 486.33 a7.5 7.5 0 1 0 15 0 a7.5 7.5 0 1 0 -15 0zM805.42 448.83 a7.5 7.5 0 1 0 15 0 a7.5 7.5 0 1 0 -15 0zM805.42 373.83 a7.5 7.5 0 1 0 15 0 a7.5 7.5 0 1 0 -15 0zM935.33 -1.17 a7.5 7.5 0 1 0 15 0 a7.5 7.5 0 1 0 -15 0zM1000.29 36.33 a7.5 7.5 0 1 0 15 0 a7.5 7.5 0 1 0 -15 0zM1000.29 111.33 a7.5 7.5 0 1 0 15 0 a7.5 7.5 0 1 0 -15 0zM870.38 36.33 a7.5 7.5 0 1 0 15 0 a7.5 7.5 0 1 0 -15 0zM1000.29 486.33 a7.5 7.5 0 1 0 15 0 a7.5 7.5 0 1 0 -15 0zM1000.29 561.33 a7.5 7.5 0 1 0 15 0 a7.5 7.5 0 1 0 -15 0zM935.33 598.83 a7.5 7.5 0 1 0 15 0 a7.5 7.5 0 1 0 -15 0zM870.38 561.33 a7.5 7.5 0 1 0 15 0 a7.5 7.5 0 1 0 -15 0zM1065.24 598.83 a7.5 7.5 0 1 0 15 0 a7.5 7.5 0 1 0 -15 0zM1065.24 673.83 a7.5 7.5 0 1 0 15 0 a7.5 7.5 0 1 0 -15 0zM1000.29 711.33 a7.5 7.5 0 1 0 15 0 a7.5 7.5 0 1 0 -15 0zM935.33 673.83 a7.5 7.5 0 1 0 15 0 a7.5 7.5 0 1 0 -15 0zM1065.24 -1.17 a7.5 7.5 0 1 0 15 0 a7.5 7.5 0 1 0 -15 0zM1130.19 36.33 a7.5 7.5 0 1 0 15 0 a7.5 7.5 0 1 0 -15 0zM1130.19 111.33 a7.5 7.5 0 1 0 15 0 a7.5 7.5 0 1 0 -15 0zM1065.24 148.83 a7.5 7.5 0 1 0 15 0 a7.5 7.5 0 1 0 -15 0zM1195.15 148.83 a7.5 7.5 0 1 0 15 0 a7.5 7.5 0 1 0 -15 0zM1195.15 223.83 a7.5 7.5 0 1 0 15 0 a7.5 7.5 0 1 0 -15 0zM1130.19 261.33 a7.5 7.5 0 1 0 15 0 a7.5 7.5 0 1 0 -15 0zM1065.24 223.83 a7.5 7.5 0 1 0 15 0 a7.5 7.5 0 1 0 -15 0zM1130.19 336.33 a7.5 7.5 0 1 0 15 0 a7.5 7.5 0 1 0 -15 0zM1065.24 373.83 a7.5 7.5 0 1 0 15 0 a7.5 7.5 0 1 0 -15 0zM1000.29 336.33 a7.5 7.5 0 1 0 15 0 a7.5 7.5 0 1 0 -15 0zM1000.29 261.33 a7.5 7.5 0 1 0 15 0 a7.5 7.5 0 1 0 -15 0zM1195.15 -1.17 a7.5 7.5 0 1 0 15 0 a7.5 7.5 0 1 0 -15 0zM1260.1 36.33 a7.5 7.5 0 1 0 15 0 a7.5 7.5 0 1 0 -15 0zM1260.1 111.33 a7.5 7.5 0 1 0 15 0 a7.5 7.5 0 1 0 -15 0zM1325.05 148.83 a7.5 7.5 0 1 0 15 0 a7.5 7.5 0 1 0 -15 0zM1325.05 223.83 a7.5 7.5 0 1 0 15 0 a7.5 7.5 0 1 0 -15 0zM1260.1 261.33 a7.5 7.5 0 1 0 15 0 a7.5 7.5 0 1 0 -15 0zM1260.1 336.33 a7.5 7.5 0 1 0 15 0 a7.5 7.5 0 1 0 -15 0zM1195.15 373.83 a7.5 7.5 0 1 0 15 0 a7.5 7.5 0 1 0 -15 0zM1390.01 111.33 a7.5 7.5 0 1 0 15 0 a7.5 7.5 0 1 0 -15 0zM1454.96 148.83 a7.5 7.5 0 1 0 15 0 a7.5 7.5 0 1 0 -15 0zM1454.96 223.83 a7.5 7.5 0 1 0 15 0 a7.5 7.5 0 1 0 -15 0zM1390.01 261.33 a7.5 7.5 0 1 0 15 0 a7.5 7.5 0 1 0 -15 0zM1325.06 223.83 a7.5 7.5 0 1 0 15 0 a7.5 7.5 0 1 0 -15 0zM1325.06 148.83 a7.5 7.5 0 1 0 15 0 a7.5 7.5 0 1 0 -15 0zM1390.01 336.33 a7.5 7.5 0 1 0 15 0 a7.5 7.5 0 1 0 -15 0zM1325.06 373.83 a7.5 7.5 0 1 0 15 0 a7.5 7.5 0 1 0 -15 0zM1454.96 373.83 a7.5 7.5 0 1 0 15 0 a7.5 7.5 0 1 0 -15 0zM1454.96 448.83 a7.5 7.5 0 1 0 15 0 a7.5 7.5 0 1 0 -15 0zM1390.01 486.33 a7.5 7.5 0 1 0 15 0 a7.5 7.5 0 1 0 -15 0zM1325.06 448.83 a7.5 7.5 0 1 0 15 0 a7.5 7.5 0 1 0 -15 0zM1519.92 111.33 a7.5 7.5 0 1 0 15 0 a7.5 7.5 0 1 0 -15 0zM1584.87 148.83 a7.5 7.5 0 1 0 15 0 a7.5 7.5 0 1 0 -15 0zM1584.87 223.83 a7.5 7.5 0 1 0 15 0 a7.5 7.5 0 1 0 -15 0zM1519.92 261.33 a7.5 7.5 0 1 0 15 0 a7.5 7.5 0 1 0 -15 0zM1519.92 336.33 a7.5 7.5 0 1 0 15 0 a7.5 7.5 0 1 0 -15 0zM1584.87 373.83 a7.5 7.5 0 1 0 15 0 a7.5 7.5 0 1 0 -15 0zM1584.87 448.83 a7.5 7.5 0 1 0 15 0 a7.5 7.5 0 1 0 -15 0zM1519.92 486.33 a7.5 7.5 0 1 0 15 0 a7.5 7.5 0 1 0 -15 0z" fill="rgba(216, 220, 224, 1)"></path><path d="M23.74 -6.54L67.04 18.46L67.04 68.46L23.74 93.46L-19.56 68.46L-19.56 18.46zM67.04 68.46L110.34 93.46L110.34 143.46L67.04 168.46L23.74 143.46L23.74 93.46zM67.04 368.46L110.34 393.46L110.34 443.46L67.04 468.46L23.74 443.46L23.74 393.46zM67.04 518.46L110.34 543.46L110.34 593.46L67.04 618.46L23.74 593.46L23.74 543.46zM153.65 68.46L196.95 93.46L196.95 143.46L153.65 168.46L110.34 143.46L110.34 93.46zM110.34 143.46L153.65 168.46L153.65 218.46L110.34 243.46L67.04 218.46L67.04 168.46zM153.65 518.46L196.95 543.46L196.95 593.46L153.65 618.46L110.34 593.46L110.34 543.46zM196.95 143.46L240.25 168.46L240.25 218.46L196.95 243.46L153.65 218.46L153.65 168.46zM240.25 218.46L283.56 243.46L283.56 293.46L240.25 318.46L196.95 293.46L196.95 243.46zM196.95 293.46L240.25 318.46L240.25 368.46L196.95 393.46L153.65 368.46L153.65 318.46zM196.95 443.46L240.25 468.46L240.25 518.46L196.95 543.46L153.65 518.46L153.65 468.46zM240.25 518.46L283.56 543.46L283.56 593.46L240.25 618.46L196.95 593.46L196.95 543.46zM283.56 -6.54L326.86 18.46L326.86 68.46L283.56 93.46L240.25 68.46L240.25 18.46zM326.86 68.46L370.16 93.46L370.16 143.46L326.86 168.46L283.56 143.46L283.56 93.46zM283.56 143.46L326.86 168.46L326.86 218.46L283.56 243.46L240.25 218.46L240.25 168.46zM326.86 218.46L370.16 243.46L370.16 293.46L326.86 318.46L283.56 293.46L283.56 243.46zM283.56 443.46L326.86 468.46L326.86 518.46L283.56 543.46L240.25 518.46L240.25 468.46zM370.16 143.46L413.46 168.46L413.46 218.46L370.16 243.46L326.86 218.46L326.86 168.46zM413.46 368.46L456.77 393.46L456.77 443.46L413.46 468.46L370.16 443.46L370.16 393.46zM413.46 518.46L456.77 543.46L456.77 593.46L413.46 618.46L370.16 593.46L370.16 543.46zM500.07 68.46L543.37 93.46L543.37 143.46L500.07 168.46L456.77 143.46L456.77 93.46zM456.77 143.46L500.07 168.46L500.07 218.46L456.77 243.46L413.46 218.46L413.46 168.46zM500.07 218.46L543.37 243.46L543.37 293.46L500.07 318.46L456.77 293.46L456.77 243.46zM500.07 368.46L543.37 393.46L543.37 443.46L500.07 468.46L456.77 443.46L456.77 393.46zM500.07 518.46L543.37 543.46L543.37 593.46L500.07 618.46L456.77 593.46L456.77 543.46zM543.37 443.46L586.67 468.46L586.67 518.46L543.37 543.46L500.07 518.46L500.07 468.46zM673.28 68.46L716.58 93.46L716.58 143.46L673.28 168.46L629.98 143.46L629.98 93.46zM629.98 443.46L673.28 468.46L673.28 518.46L629.98 543.46L586.67 518.46L586.67 468.46zM673.28 518.46L716.58 543.46L716.58 593.46L673.28 618.46L629.98 593.46L629.98 543.46zM716.58 143.46L759.88 168.46L759.88 218.46L716.58 243.46L673.28 218.46L673.28 168.46zM716.58 293.46L759.88 318.46L759.88 368.46L716.58 393.46L673.28 368.46L673.28 318.46zM803.19 143.46L846.49 168.46L846.49 218.46L803.19 243.46L759.88 218.46L759.88 168.46zM803.19 293.46L846.49 318.46L846.49 368.46L803.19 393.46L759.88 368.46L759.88 318.46zM846.49 518.46L889.79 543.46L889.79 593.46L846.49 618.46L803.19 593.46L803.19 543.46zM889.79 -6.54L933.09 18.46L933.09 68.46L889.79 93.46L846.49 68.46L846.49 18.46zM933.09 218.46L976.4 243.46L976.4 293.46L933.09 318.46L889.79 293.46L889.79 243.46zM889.79 443.46L933.09 468.46L933.09 518.46L889.79 543.46L846.49 518.46L846.49 468.46zM933.09 518.46L976.4 543.46L976.4 593.46L933.09 618.46L889.79 593.46L889.79 543.46zM976.4 -6.54L1019.7 18.46L1019.7 68.46L976.4 93.46L933.09 68.46L933.09 18.46zM976.4 293.46L1019.7 318.46L1019.7 368.46L976.4 393.46L933.09 368.46L933.09 318.46zM1063 -6.54L1106.3 18.46L1106.3 68.46L1063 93.46L1019.7 68.46L1019.7 18.46zM1106.3 368.46L1149.61 393.46L1149.61 443.46L1106.3 468.46L1063 443.46L1063 393.46zM1063 443.46L1106.3 468.46L1106.3 518.46L1063 543.46L1019.7 518.46L1019.7 468.46zM1106.3 518.46L1149.61 543.46L1149.61 593.46L1106.3 618.46L1063 593.46L1063 543.46zM1149.61 143.46L1192.91 168.46L1192.91 218.46L1149.61 243.46L1106.3 218.46L1106.3 168.46zM1149.61 293.46L1192.91 318.46L1192.91 368.46L1149.61 393.46L1106.3 368.46L1106.3 318.46zM1149.61 443.46L1192.91 468.46L1192.91 518.46L1149.61 543.46L1106.3 518.46L1106.3 468.46zM1236.21 143.46L1279.51 168.46L1279.51 218.46L1236.21 243.46L1192.91 218.46L1192.91 168.46zM1279.51 368.46L1322.82 393.46L1322.82 443.46L1279.51 468.46L1236.21 443.46L1236.21 393.46zM1322.82 443.46L1366.12 468.46L1366.12 518.46L1322.82 543.46L1279.51 518.46L1279.51 468.46zM1409.42 -6.54L1452.72 18.46L1452.72 68.46L1409.42 93.46L1366.12 68.46L1366.12 18.46zM1409.42 143.46L1452.72 168.46L1452.72 218.46L1409.42 243.46L1366.12 218.46L1366.12 168.46zM1409.42 293.46L1452.72 318.46L1452.72 368.46L1409.42 393.46L1366.12 368.46L1366.12 318.46zM1452.72 368.46L1496.03 393.46L1496.03 443.46L1452.72 468.46L1409.42 443.46L1409.42 393.46zM1409.42 443.46L1452.72 468.46L1452.72 518.46L1409.42 543.46L1366.12 518.46L1366.12 468.46zM1452.72 518.46L1496.03 543.46L1496.03 593.46L1452.72 618.46L1409.42 593.46L1409.42 543.46z" stroke="rgba(237, 238, 240, 0.93)" stroke-width="2"></path></g><defs><mask id="SvgjsMask1003"><rect width="1440" height="560" fill="#ffffff"></rect></mask></defs></svg>